<?xml version="1.0" encoding="utf-8"?>
<!-- Generator: Adobe Illustrator 23.1.1, SVG Export Plug-In . SVG Version: 6.00 Build 0)  -->
<svg version="1.1" id="Layer_1" xmlns="http://www.w3.org/2000/svg" xmlns:xlink="http://www.w3.org/1999/xlink" x="0px" y="0px"
	 viewBox="0 0 26 22.7" style="enable-background:new 0 0 26 22.7;" xml:space="preserve">
<style type="text/css">
	.st0{fill:#5437D0;}
	.st1{fill:#D8CCF2;}
	.st2{fill:none;stroke:#5437D0;stroke-width:25;stroke-linecap:round;stroke-miterlimit:10;}
	.st3{fill:#007EFD;}
	.st4{fill:#177ACC;}
	.st5{fill:#FFFFFF;}
</style>
<g>
	<path d="M25.2,11.8l0.1-0.1c0.4-0.4,0.6-1,0.6-1.6c0-1.3-1-2.3-2.3-2.3h-4.9L19,7.5C19.7,6.2,20,5,20,3.5V3.2
		c0-0.8-0.3-1.6-0.9-2.2c-0.6-0.6-1.4-0.9-2.2-1l0,0c-0.8,0-1.4,0.6-1.5,1.4C15,5.8,10.5,8,8.3,9L8.1,9.1V8.4c0-0.3-0.3-0.6-0.6-0.6
		H0.6C0.3,7.8,0,8.1,0,8.4v13.7c0,0.3,0.3,0.6,0.6,0.6h5.1c0.9,0,1.7-0.5,2.1-1.3l0.1-0.2l0.2,0.1c2.9,1.3,5.5,1.4,8.1,1.4
		c0.5,0,1,0,1.5,0c0.6,0,1.2,0,1.8,0h2.5c1.3,0,2.3-1,2.3-2.3c0-0.4-0.1-0.8-0.3-1.2L23.8,19l0.2-0.1c0.7-0.4,1.1-1.2,1.1-2
		c0-0.4-0.1-0.8-0.3-1.2l-0.1-0.2l0.2-0.1c0.7-0.4,1.1-1.2,1.1-2c0-0.6-0.2-1.1-0.6-1.6L25.2,11.8z M6.8,20.4c0,0.6-0.5,1.1-1.1,1.1
		H1.2V9h5.6V20.4z M22,12.4h1.7c0.6,0,1.1,0.5,1.1,1.1c0,0.6-0.5,1.1-1.1,1.1H22c-0.3,0-0.6,0.3-0.6,0.6c0,0.3,0.3,0.6,0.6,0.6h0.8
		c0.6,0,1.1,0.5,1.1,1.1c0,0.6-0.5,1.1-1.1,1.1h-0.9c-0.3,0-0.6,0.3-0.6,0.6c0,0.3,0.3,0.6,0.6,0.6c0.6,0,1.1,0.5,1.1,1.1
		c0,0.6-0.5,1.1-1.1,1.1h-2.5c-0.6,0-1.2,0-1.8,0c-0.5,0-1,0-1.5,0c-2.9,0-5.2-0.2-8-1.4L8.1,20v-9.5l0.4-0.2c1.4-0.7,3.3-1.6,4.9-3
		c2-1.7,3.1-3.7,3.2-5.9c0-0.1,0.2-0.3,0.3-0.3c1.1,0,1.9,0.9,1.9,2v0.3c0,1.8-0.5,2.8-1.4,4.2l-0.1,0.1H16c-0.3,0-0.6,0.3-0.6,0.6
		C15.4,8.7,15.7,9,16,9h7.7c0.6,0,1.1,0.5,1.1,1.1c0,0.6-0.5,1.1-1.1,1.1H22c-0.3,0-0.6,0.3-0.6,0.6C21.4,12.2,21.6,12.4,22,12.4z"
		/>
	<path class="st0" d="M4.9,15.2v6.3H3.2v-6.3c0-0.4,0.3-0.7,0.7-0.7h0.3C4.5,14.5,4.9,14.8,4.9,15.2z"/>
</g>
</svg>
