<?xml version="1.0" encoding="utf-8"?>
<!-- Generator: Adobe Illustrator 23.1.1, SVG Export Plug-In . SVG Version: 6.00 Build 0)  -->
<svg version="1.1" id="Layer_1" xmlns="http://www.w3.org/2000/svg" xmlns:xlink="http://www.w3.org/1999/xlink" x="0px" y="0px"
	 viewBox="0 0 22 20.7" style="enable-background:new 0 0 22 20.7;" xml:space="preserve">
<style type="text/css">
	.st0{fill:#5437D0;}
	.st1{fill:#D8CCF2;}
	.st2{fill:none;stroke:#5437D0;stroke-width:25;stroke-linecap:round;stroke-miterlimit:10;}
	.st3{fill:#007EFD;}
	.st4{fill:#177ACC;}
	.st5{fill:#FFFFFF;}
</style>
<g>
	<g>
		<path d="M2.9,20.7V16C1.3,15.8,0,14.4,0,12.7V3.4C0,1.5,1.5,0,3.4,0h15.3C20.5,0,22,1.5,22,3.4v9.4c0,1.9-1.5,3.4-3.4,3.4H9.6
			L2.9,20.7z M3.4,0.9C2,0.9,0.9,2,0.9,3.4v9.4c0,1.3,1.1,2.4,2.4,2.4l0.5,0V19l5.5-3.8h9.3c1.3,0,2.4-1.1,2.4-2.4V3.4
			c0-1.3-1.1-2.4-2.4-2.4H3.4z"/>
	</g>
	<g>
		<path class="st0" d="M16,6H6.4C6,6,5.7,5.7,5.7,5.3S6,4.7,6.4,4.7H16c0.4,0,0.7,0.3,0.7,0.7S16.4,6,16,6z"/>
	</g>
	<g>
		<path class="st0" d="M16,8.7H6.4C6,8.7,5.7,8.4,5.7,8.1c0-0.4,0.3-0.7,0.7-0.7H16c0.4,0,0.7,0.3,0.7,0.7C16.7,8.4,16.4,8.7,16,8.7
			z"/>
	</g>
	<g>
		<path class="st0" d="M16,11.4H6.4c-0.4,0-0.7-0.3-0.7-0.7c0-0.4,0.3-0.7,0.7-0.7H16c0.4,0,0.7,0.3,0.7,0.7
			C16.7,11.1,16.4,11.4,16,11.4z"/>
	</g>
</g>
</svg>
